<svg xmlns="http://www.w3.org/2000/svg" width="500" height="500" viewBox="0 0 500 500" version="1.1">
	<path d="M 20.332 1.851 C 10.292 5.321, 3.157 13.261, 0.988 23.378 C 0.204 27.035, -0.022 92.837, 0.195 253.500 L 0.500 478.500 3.186 483.590 C 6.171 489.248, 10.914 493.843, 17.278 497.244 L 21.500 499.500 247.464 499.759 C 495.882 500.043, 478.937 500.450, 487.862 493.985 C 492.696 490.483, 497.682 483.210, 498.599 478.323 C 498.942 476.496, 499.623 475, 500.111 475 C 500.627 475, 500.994 380.248, 500.985 249.250 C 500.975 103.134, 500.627 24.029, 500 25 C 499.204 26.231, 499.028 26.126, 499.015 24.410 C 498.983 19.939, 493.006 10.175, 488.097 6.571 C 478.498 -0.475, 495.782 -0.004, 248.540 0.033 C 37.063 0.064, 25.232 0.158, 20.332 1.851 M 0.491 250.500 C 0.491 374.800, 0.608 425.501, 0.750 363.170 C 0.892 300.838, 0.892 199.138, 0.750 137.170 C 0.608 75.201, 0.491 126.200, 0.491 250.500 M 227 96.184 C 217.925 96.659, 193.400 97.374, 172.500 97.773 L 134.500 98.500 134.500 104.500 L 134.500 110.500 142.500 113.695 C 146.900 115.453, 154.886 117.928, 160.247 119.195 L 169.993 121.500 169.997 250.137 L 170 378.774 163.250 380.029 C 156.337 381.315, 145.427 384.615, 138.750 387.440 L 135 389.027 135 395.401 L 135 401.776 173.750 402.397 C 195.063 402.739, 223.698 403.286, 237.385 403.613 C 257.896 404.104, 264.398 403.907, 274.385 402.493 C 301.905 398.594, 324.575 388.748, 340.648 373.713 C 356.260 359.108, 364.255 342.241, 365.634 321 C 368.210 281.290, 343.265 251.185, 300.117 241.932 C 297.303 241.328, 295 240.453, 295 239.988 C 295 239.523, 297.568 238.395, 300.707 237.483 C 322.877 231.038, 341.058 213.261, 348.757 190.500 C 351.234 183.179, 351.465 181.184, 351.482 167 C 351.502 149.648, 350.654 145.264, 345.244 134.772 C 333.148 111.310, 307.982 99.118, 265.180 95.986 C 251.119 94.957, 250.401 94.961, 227 96.184 M 221 118.618 C 217.975 118.827, 214.037 119.244, 212.250 119.545 L 209 120.091 209 178.045 L 209 236 227.539 236 C 255.848 236, 263.492 234.927, 275 229.339 C 283.015 225.446, 285.831 223.379, 293.015 216.113 C 303.311 205.699, 307.490 197.957, 309.687 185.227 C 312.156 170.917, 309.142 153.589, 302.285 142.677 C 296.394 133.302, 284.660 125.083, 271.662 121.228 C 264.544 119.117, 261.134 118.771, 245 118.522 C 234.825 118.365, 224.025 118.408, 221 118.618 M 209 318.910 L 209 378.819 216.250 380.160 C 220.812 381.003, 231.101 381.497, 244 381.492 C 265.998 381.483, 270.916 380.728, 284.336 375.294 C 302.056 368.120, 315.926 353.573, 321.285 336.542 C 323.119 330.711, 323.488 327.265, 323.432 316.500 C 323.374 305.369, 323.029 302.638, 321.033 297.500 C 316.102 284.809, 308.659 276.234, 296.942 269.745 C 282.270 261.619, 266.688 259, 233.007 259 L 209 259 209 318.910" stroke="none" fill="black" fill-rule="evenodd"/>
</svg>